<svg width="220" height="208" viewBox="0 0 220 208" fill="none" xmlns="http://www.w3.org/2000/svg">
<circle opacity="0.1" cx="5" cy="5" r="5" transform="matrix(1 0 0 -1 160 93)" fill="#27308C"/>
<circle opacity="0.2" cx="3" cy="3" r="3" transform="matrix(1 0 0 -1 76 204)" fill="#27308C"/>
<mask id="mask0_5_255" style="mask-type:alpha" maskUnits="userSpaceOnUse" x="25" y="20" width="95" height="95">
<rect x="21" y="44.6162" width="80" height="80" rx="16" transform="rotate(-20.959 21 44.6162)" fill="#FFC467"/>
</mask>
<g mask="url(#mask0_5_255)">
<rect x="21" y="44.6162" width="80" height="80" rx="16" transform="rotate(-20.959 21 44.6162)" fill="#FFC467"/>
<path opacity="0.15" d="M45.8293 67.641C45.1003 57.7266 52.5465 49.0985 62.4608 48.3694L122.299 43.9693C132.214 43.2403 140.842 50.6865 141.571 60.6008L148.72 157.826C149.061 162.459 144.234 165.705 140.072 163.642L99.5412 143.556L62.3844 169.355C58.5687 172.004 53.3193 169.499 52.9786 164.866L45.8293 67.641Z" fill="#151A53"/>
<path opacity="0.15" d="M30.6072 36.6556C29.4598 33.7981 31.8361 30.7702 34.8844 31.2053L43.4577 32.4291C46.506 32.8642 47.9402 36.436 46.0392 38.8584L40.6927 45.6712C38.7917 48.0936 34.9813 47.5497 33.834 44.6922L30.6072 36.6556Z" fill="#151A53"/>
</g>
<path opacity="0.1" d="M88.7088 79.8086C90.1547 69.9732 99.3001 63.1722 109.135 64.6181L168.497 73.3452C178.333 74.7911 185.134 83.9364 183.688 93.7718L169.508 190.223C168.833 194.819 163.415 196.937 159.802 194.018L124.613 165.593L82.7327 182.688C78.4319 184.443 73.8535 180.856 74.5291 176.26L88.7088 79.8086Z" fill="#5665FF"/>
<path d="M50.8293 66.641C50.1003 56.7266 57.5465 48.0985 67.4608 47.3694L127.299 42.9693C137.214 42.2403 145.842 49.6865 146.571 59.6008L153.72 156.826C154.061 161.459 149.234 164.705 145.072 162.642L104.541 142.556L67.3844 168.355C63.5687 171.004 58.3193 168.499 57.9786 163.866L50.8293 66.641Z" fill="#3747E9"/>
<path d="M31.5867 33.6361C30.4393 30.7786 32.8156 27.7506 35.8639 28.1858L44.4372 29.4095C47.4855 29.8447 48.9197 33.4165 47.0187 35.8388L41.6722 42.6517C39.7712 45.074 35.9608 44.5301 34.8135 41.6727L31.5867 33.6361Z" fill="#FF9E87"/>
<path d="M7.90299 149.369C6.69729 146.366 9.1944 143.184 12.3978 143.642C15.6012 144.099 17.1083 147.853 15.1106 150.398C13.1129 152.944 9.10869 152.372 7.90299 149.369Z" fill="#FF9E87"/>
<path d="M189.368 125.998C187.023 120.159 191.879 113.972 198.108 114.861C204.337 115.75 207.268 123.049 203.383 127.999C199.499 132.949 191.712 131.838 189.368 125.998Z" fill="#FF9E87"/>
<path d="M141.325 193.467C139.165 191.272 140.191 187.563 143.172 186.79L151.554 184.615C154.535 183.842 157.235 186.586 156.414 189.553L154.105 197.9C153.285 200.868 149.559 201.834 147.399 199.64L141.325 193.467Z" fill="#FFE1DA"/>
<path d="M82.1489 69.8535L117.055 67.2868" stroke="white" stroke-width="3"/>
<path opacity="0.3" d="M176.76 38.5844C173.919 45.7757 169.403 26.5391 162.211 23.6984C155.02 20.8578 137.049 22.0723 139.89 14.8811C142.73 7.6898 163.689 7.07889 170.88 9.91955C178.071 12.7602 179.601 31.3932 176.76 38.5844Z" fill="#3F13E4"/>
</svg>
