<svg width="24" height="24" viewBox="0 0 24 24" fill="none" xmlns="http://www.w3.org/2000/svg">
<mask id="path-1-inside-1_6_1947" fill="white">
<path fill-rule="evenodd" clip-rule="evenodd" d="M1.72443 17.4002C3.50312 20.1671 6.60868 21.9999 10.1423 21.9999C15.6652 21.9999 20.1423 17.5228 20.1423 11.9999C20.1423 6.95824 16.4113 2.78799 11.5597 2.09961C12.561 3.65717 13.1418 5.51072 13.1418 7.49993C13.1418 13.0228 8.66468 17.4999 3.14183 17.4999C2.66067 17.4999 2.18744 17.4659 1.72443 17.4002Z"/>
</mask>
<path d="M1.72443 17.4002L1.93515 15.9151L-1.30946 15.4548L0.462659 18.2114L1.72443 17.4002ZM11.5597 2.09961L11.7705 0.614484L8.52584 0.154116L10.298 2.91075L11.5597 2.09961ZM10.1423 20.4999C7.1403 20.4999 4.50057 18.9448 2.98619 16.5891L0.462659 18.2114C2.50568 21.3894 6.07706 23.4999 10.1423 23.4999V20.4999ZM18.6423 11.9999C18.6423 16.6943 14.8367 20.4999 10.1423 20.4999V23.4999C16.4936 23.4999 21.6423 18.3512 21.6423 11.9999H18.6423ZM11.349 3.58473C15.4714 4.16965 18.6423 7.71578 18.6423 11.9999H21.6423C21.6423 6.20071 17.3512 1.40632 11.7705 0.614484L11.349 3.58473ZM10.298 2.91075C11.1484 4.23362 11.6418 5.80686 11.6418 7.49993H14.6418C14.6418 5.21458 13.9737 3.08072 12.8215 1.28847L10.298 2.91075ZM11.6418 7.49993C11.6418 12.1943 7.83625 15.9999 3.14183 15.9999V18.9999C9.49311 18.9999 14.6418 13.8512 14.6418 7.49993H11.6418ZM3.14183 15.9999C2.73138 15.9999 2.32857 15.9709 1.93515 15.9151L1.51371 18.8854C2.04632 18.9609 2.58996 18.9999 3.14183 18.9999V15.9999Z" fill="#3D4859" mask="url(#path-1-inside-1_6_1947)"/>
</svg>
