<svg width="24" height="24" viewBox="0 0 24 24" fill="none" xmlns="http://www.w3.org/2000/svg">
<path d="M2.75 9.94449C2.75 8.18022 4.18022 6.75 5.94449 6.75C6.85468 6.75 7.70465 6.29511 8.20953 5.53779L8.43657 5.19722C9.03934 4.29308 10.0541 3.75 11.1407 3.75H12.6265C13.591 3.75 14.5057 4.17842 15.1232 4.9194L15.8241 5.76051C16.3466 6.38749 17.1206 6.75 17.9367 6.75H18C19.7949 6.75 21.25 8.20507 21.25 10V17C21.25 18.7949 19.7949 20.25 18 20.25H6C4.20507 20.25 2.75 18.7949 2.75 17V9.94449Z" fill="#FCA34D" stroke="#FF9228" stroke-width="1.5"/>
<circle cx="12" cy="13" r="4.25" stroke="white" stroke-width="1.5"/>
</svg>
