<svg width="24" height="24" viewBox="0 0 24 24" fill="none" xmlns="http://www.w3.org/2000/svg">
<mask id="path-1-inside-1_5_674" fill="white">
<path fill-rule="evenodd" clip-rule="evenodd" d="M12 2C10.3431 2 9 3.34315 9 5V5.67363C8.65787 5.83616 8.33102 6.02563 8.02218 6.23929L7.43773 5.90185C6.00285 5.07343 4.16808 5.56505 3.33965 6.99993C2.51122 8.43481 3.00285 10.2696 4.43773 11.098L5.02243 11.4356C5.00757 11.6218 5 11.81 5 12C5 12.19 5.00757 12.3781 5.02242 12.5643L4.43773 12.9019C3.00285 13.7303 2.51122 15.5651 3.33965 16.9999C4.16808 18.4348 6.00285 18.9264 7.43773 18.098L8.02207 17.7606C8.33094 17.9743 8.65783 18.1638 9 18.3264V19C9 20.6569 10.3431 22 12 22C13.6569 22 15 20.6569 15 19V18.3264C15.3421 18.1638 15.669 17.9744 15.9778 17.7607L16.5621 18.098C17.997 18.9264 19.8317 18.4348 20.6602 16.9999C21.4886 15.5651 20.997 13.7303 19.5621 12.9019L18.9776 12.5644C18.9924 12.3782 19 12.19 19 12C19 11.81 18.9924 11.6217 18.9776 11.4355L19.5621 11.098C20.997 10.2696 21.4886 8.43481 20.6602 6.99993C19.8317 5.56505 17.997 5.07343 16.5621 5.90186L15.9777 6.23922C15.6689 6.02559 15.3421 5.83614 15 5.67363V5C15 3.34315 13.6569 2 12 2Z"/>
</mask>
<path d="M9 5.67363L9.64364 7.02852L10.5 6.62171V5.67363H9ZM8.02218 6.23929L7.27218 7.53832L8.0946 8.01315L8.87558 7.47286L8.02218 6.23929ZM7.43773 5.90185L6.68773 7.20089H6.68773L7.43773 5.90185ZM3.33965 6.99993L2.04061 6.24993H2.04061L3.33965 6.99993ZM4.43773 11.098L5.18773 9.79897H5.18773L4.43773 11.098ZM5.02243 11.4356L6.51768 11.5549L6.59304 10.6103L5.77243 10.1365L5.02243 11.4356ZM5.02242 12.5643L5.77242 13.8633L6.59301 13.3896L6.51767 12.445L5.02242 12.5643ZM4.43773 12.9019L3.68773 11.6028L3.68773 11.6028L4.43773 12.9019ZM3.33965 16.9999L2.04061 17.7499H2.04061L3.33965 16.9999ZM7.43773 18.098L6.68773 16.799L6.68773 16.799L7.43773 18.098ZM8.02207 17.7606L8.8755 16.5271L8.09451 15.9868L7.27207 16.4616L8.02207 17.7606ZM9 18.3264H10.5V17.3783L9.64364 16.9715L9 18.3264ZM15 18.3264L14.3564 16.9715L13.5 17.3783V18.3264H15ZM15.9778 17.7607L16.7278 16.4617L15.9054 15.9868L15.1244 16.5271L15.9778 17.7607ZM16.5621 18.098L17.3121 16.799L16.5621 18.098ZM20.6602 16.9999L21.9592 17.7499L21.9592 17.7499L20.6602 16.9999ZM19.5621 12.9019L18.8121 14.2009H18.8121L19.5621 12.9019ZM18.9776 12.5644L17.4823 12.4451L17.407 13.3896L18.2276 13.8634L18.9776 12.5644ZM18.9776 11.4355L18.2276 10.1364L17.4069 10.6102L17.4823 11.5548L18.9776 11.4355ZM19.5621 11.098L18.8121 9.79897L18.8121 9.79897L19.5621 11.098ZM16.5621 5.90186L17.3121 7.20089L17.3121 7.20089L16.5621 5.90186ZM15.9777 6.23922L15.1244 7.47281L15.9053 8.01308L16.7277 7.53826L15.9777 6.23922ZM15 5.67363H13.5V6.62171L14.3564 7.02852L15 5.67363ZM10.5 5C10.5 4.17157 11.1716 3.5 12 3.5V0.5C9.51472 0.5 7.5 2.51472 7.5 5H10.5ZM10.5 5.67363V5H7.5V5.67363H10.5ZM8.87558 7.47286C9.11841 7.30486 9.37516 7.15606 9.64364 7.02852L8.35637 4.31874C7.94058 4.51626 7.54362 4.74639 7.16877 5.00572L8.87558 7.47286ZM6.68773 7.20089L7.27218 7.53832L8.77218 4.94025L8.18773 4.60282L6.68773 7.20089ZM4.63869 7.74993C5.0529 7.03249 5.97029 6.78668 6.68773 7.20089L8.18773 4.60282C6.03541 3.36018 3.28325 4.09761 2.04061 6.24993L4.63869 7.74993ZM5.18773 9.79897C4.47029 9.38475 4.22448 8.46737 4.63869 7.74993L2.04061 6.24993C0.797972 8.40225 1.53541 11.1544 3.68773 12.397L5.18773 9.79897ZM5.77243 10.1365L5.18773 9.79897L3.68773 12.397L4.27243 12.7346L5.77243 10.1365ZM6.5 12C6.5 11.8499 6.50598 11.7014 6.51768 11.5549L3.52718 11.3163C3.50916 11.5421 3.5 11.7701 3.5 12H6.5ZM6.51767 12.445C6.50598 12.2985 6.5 12.1501 6.5 12H3.5C3.5 12.2298 3.50916 12.4578 3.52717 12.6836L6.51767 12.445ZM5.18773 14.2009L5.77242 13.8633L4.27242 11.2652L3.68773 11.6028L5.18773 14.2009ZM4.63869 16.2499C4.22447 15.5325 4.47029 14.6151 5.18773 14.2009L3.68773 11.6028C1.53541 12.8455 0.797971 15.5976 2.04061 17.7499L4.63869 16.2499ZM6.68773 16.799C5.97029 17.2132 5.0529 16.9674 4.63869 16.2499L2.04061 17.7499C3.28325 19.9022 6.03541 20.6397 8.18773 19.397L6.68773 16.799ZM7.27207 16.4616L6.68773 16.799L8.18773 19.397L8.77207 19.0597L7.27207 16.4616ZM9.64364 16.9715C9.37513 16.8439 9.11835 16.6951 8.8755 16.5271L7.16864 18.9942C7.54353 19.2536 7.94053 19.4837 8.35637 19.6813L9.64364 16.9715ZM10.5 19V18.3264H7.5V19H10.5ZM12 20.5C11.1716 20.5 10.5 19.8284 10.5 19H7.5C7.5 21.4853 9.51472 23.5 12 23.5V20.5ZM13.5 19C13.5 19.8284 12.8284 20.5 12 20.5V23.5C14.4853 23.5 16.5 21.4853 16.5 19H13.5ZM13.5 18.3264V19H16.5V18.3264H13.5ZM15.1244 16.5271C14.8816 16.6951 14.6248 16.8439 14.3564 16.9715L15.6436 19.6813C16.0594 19.4837 16.4564 19.2536 16.8313 18.9943L15.1244 16.5271ZM17.3121 16.799L16.7278 16.4617L15.2278 19.0597L15.8121 19.397L17.3121 16.799ZM19.3611 16.2499C18.9469 16.9674 18.0295 17.2132 17.3121 16.799L15.8121 19.397C17.9644 20.6397 20.7166 19.9022 21.9592 17.7499L19.3611 16.2499ZM18.8121 14.2009C19.5295 14.6151 19.7753 15.5325 19.3611 16.2499L21.9592 17.7499C23.2018 15.5976 22.4644 12.8455 20.3121 11.6028L18.8121 14.2009ZM18.2276 13.8634L18.8121 14.2009L20.3121 11.6028L19.7276 11.2654L18.2276 13.8634ZM17.5 12C17.5 12.1501 17.494 12.2986 17.4823 12.4451L20.4728 12.6837C20.4908 12.4579 20.5 12.2298 20.5 12H17.5ZM17.4823 11.5548C17.494 11.7014 17.5 11.8498 17.5 12H20.5C20.5 11.7701 20.4908 11.542 20.4728 11.3162L17.4823 11.5548ZM18.8121 9.79897L18.2276 10.1364L19.7276 12.7345L20.3121 12.397L18.8121 9.79897ZM19.3611 7.74993C19.7753 8.46737 19.5295 9.38476 18.8121 9.79897L20.3121 12.397C22.4644 11.1544 23.2018 8.40225 21.9592 6.24993L19.3611 7.74993ZM17.3121 7.20089C18.0295 6.78668 18.9469 7.03249 19.3611 7.74993L21.9592 6.24993C20.7166 4.09762 17.9644 3.36018 15.8121 4.60282L17.3121 7.20089ZM16.7277 7.53826L17.3121 7.20089L15.8121 4.60282L15.2277 4.94019L16.7277 7.53826ZM14.3564 7.02852C14.6248 7.15605 14.8815 7.30484 15.1244 7.47281L16.8311 5.00564C16.4563 4.74634 16.0594 4.51624 15.6436 4.31874L14.3564 7.02852ZM13.5 5V5.67363H16.5V5H13.5ZM12 3.5C12.8284 3.5 13.5 4.17157 13.5 5H16.5C16.5 2.51472 14.4853 0.5 12 0.5V3.5Z" fill="white" mask="url(#path-1-inside-1_5_674)"/>
<circle cx="12" cy="12" r="2.25" stroke="white" stroke-width="1.5"/>
</svg>
