<svg width="30" height="31" viewBox="0 0 30 31" fill="none" xmlns="http://www.w3.org/2000/svg">
<path d="M23 23.1626V14.9288L6 13.0208V23.1627C6 24.0698 6.6115 24.8681 7.49374 25.079C12.7512 26.3362 16.2488 26.3361 21.5062 25.079C22.3885 24.868 23 24.0697 23 23.1626Z" fill="#FF9228"/>
<path d="M12.6194 3.51297L1.73679 9.60773C1.40522 9.79342 1.39383 10.2665 1.7161 10.468L15.772 19.2536C16.5047 19.7116 17.4487 19.6473 18.1125 19.0941L28.3867 10.5315C28.6703 10.2952 28.6088 9.84366 28.2724 9.69173L14.4199 3.43523C13.8414 3.17395 13.1732 3.2028 12.6194 3.51297Z" fill="#FF9228" stroke="#FFF5F3" stroke-width="1.5" stroke-linecap="round"/>
<path d="M23.5 21.5215C17.2516 22.8549 11.7484 22.855 5.5 21.5215" stroke="#FFF5F3" stroke-width="1.5"/>
<path d="M16.25 9.52043C16.25 10.2109 15.6903 10.7706 15 10.7706C14.3097 10.7706 13.75 10.2109 13.75 9.52043C13.75 8.82992 14.3097 8.27026 15 8.27026C15.6903 8.27026 16.25 8.82992 16.25 9.52043Z" stroke="#FFF5F3" stroke-width="1.5"/>
<path d="M16.5 10.0203L25 12.5" stroke="#FFF5F3" stroke-width="1.5" stroke-linecap="round"/>
<mask id="path-6-inside-1_3_1699" fill="white">
<path d="M25.5078 11.9492L24.1992 13.0469V17.361C24.1992 17.7223 24.4922 18.0153 24.8535 18.0153C25.2149 18.0153 25.5078 17.7223 25.5078 17.361V11.9492Z"/>
</mask>
<path d="M24.1992 13.0469L23.2352 11.8976L22.6992 12.3473V13.0469H24.1992ZM25.5078 11.9492H27.0078V8.73318L24.5438 10.8L25.5078 11.9492ZM25.1632 14.1961L26.4718 13.0985L24.5438 10.8L23.2352 11.8976L25.1632 14.1961ZM24.0078 11.9492V17.361H27.0078V11.9492H24.0078ZM25.6992 17.361V13.0469H22.6992V17.361H25.6992ZM24.8535 16.5153C25.3206 16.5153 25.6992 16.8939 25.6992 17.361H22.6992C22.6992 18.5507 23.6637 19.5153 24.8535 19.5153V16.5153ZM24.0078 17.361C24.0078 16.8939 24.3864 16.5153 24.8535 16.5153V19.5153C26.0433 19.5153 27.0078 18.5507 27.0078 17.361H24.0078Z" fill="#FF9228" mask="url(#path-6-inside-1_3_1699)"/>
</svg>
