<svg width="30" height="30" viewBox="0 0 30 30" fill="none" xmlns="http://www.w3.org/2000/svg">
<path d="M7.07284 19.794L6.16503 20.273L6.16499 25.9111L12.7992 28.1044C14.3243 28.6086 15.976 28.5735 17.4772 28.0048L26.2362 24.6873C26.9093 24.4323 27.318 23.7476 27.2231 23.034C27.0999 22.1078 26.1916 21.4993 25.2884 21.7378L15.5565 24.3071L18.4796 23.2657C19.2463 22.9925 19.7174 22.2207 19.61 21.4137C19.5262 20.7837 18.9475 20.3405 18.3174 20.4238L15.325 20.8192C14.5301 20.9242 13.7218 20.788 13.0049 20.4281L11.6507 19.7483C10.2063 19.0233 8.50116 19.0403 7.07284 19.794Z" fill="#FF9228"/>
<path d="M2.41504 20.9314V25.9074C2.41504 26.8739 3.19854 27.6574 4.16504 27.6574H5.16504C6.13154 27.6574 6.91504 26.8739 6.91504 25.9074V20.9314C6.91504 19.9649 6.13154 19.1814 5.16504 19.1814H4.16504C3.19854 19.1814 2.41504 19.9649 2.41504 20.9314Z" fill="#FF9228" stroke="#FFF5F3" stroke-width="1.5" stroke-linecap="round"/>
<path fill-rule="evenodd" clip-rule="evenodd" d="M7.51743 3.67813C5.26307 5.92476 5.26307 9.56725 7.51742 11.8139L12.1676 16.4481C12.9568 17.2346 13.9933 17.6244 15.0276 17.6175C16.0619 17.6244 17.0984 17.2346 17.8876 16.4481L22.5378 11.8139C24.7921 9.56725 24.7921 5.92476 22.5378 3.67813C20.4902 1.63759 17.2871 1.45041 15.0276 3.1166C12.7681 1.45041 9.56499 1.63759 7.51743 3.67813Z" fill="#FF9228"/>
<path d="M4.16455 9.11869H9.66455L11.4979 7.32486L14.9866 11.9589L18.6533 5.97949L20.9449 9.11869H26.1646" stroke="#FFF5F3" stroke-width="1.5" stroke-linecap="round"/>
</svg>
