<svg width="30" height="30" viewBox="0 0 30 30" fill="none" xmlns="http://www.w3.org/2000/svg">
<path d="M15.0001 13.0193C8.92494 13.0193 4.00006 17.4964 4.00006 23.0193H26.0001C26.0001 17.4964 21.0752 13.0193 15.0001 13.0193Z" fill="#FF9228"/>
<rect x="2" y="23.0195" width="26" height="5.00001" rx="2.5" fill="#FF9228" stroke="#FFF5F3" stroke-width="1.5"/>
<circle cx="15" cy="11.0195" r="2" fill="#FF9228"/>
<path d="M11.5799 2.03356C11.5799 2.03356 10.1115 2.58364 10.6616 4.05195C11.2117 5.52026 9.64904 6.42247 9.29692 6.32812" stroke="#FF9228" stroke-width="1.5" stroke-linecap="round"/>
<path d="M16.5799 1.03356C16.5799 1.03356 15.1115 1.58364 15.6616 3.05195C16.2117 4.52026 14.649 5.42247 14.2969 5.32812" stroke="#FF9228" stroke-width="1.5" stroke-linecap="round"/>
<path d="M21.5803 2.03356C21.5803 2.03356 20.112 2.58364 20.6621 4.05195C21.2122 5.52026 19.6495 6.42247 19.2974 6.32812" stroke="#FF9228" stroke-width="1.5" stroke-linecap="round"/>
</svg>
