<svg width="18" height="21" viewBox="0 0 18 21" fill="none" xmlns="http://www.w3.org/2000/svg">
<path d="M17.6222 16.3654C17.3108 17.0786 16.9261 17.7587 16.474 18.3951C15.8702 19.2425 15.3743 19.8281 14.9942 20.154C14.4038 20.6866 13.7696 20.9606 13.0915 20.976C12.6057 20.976 12.0187 20.8401 11.335 20.5639C10.6491 20.2888 10.0194 20.154 9.44249 20.154C8.83863 20.154 8.19092 20.2888 7.4971 20.5639C6.8044 20.8401 6.24439 20.9849 5.81596 20.9981C5.16711 21.0258 4.51827 20.7451 3.87168 20.154C3.45899 19.8005 2.94284 19.1928 2.32323 18.3332C1.65977 17.4172 1.11439 16.351 0.687074 15.139C0.2294 13.8275 0 12.5591 0 11.3305C0 9.92398 0.30924 8.70973 0.928844 7.69324C1.39748 6.89493 2.06746 6.22866 2.87424 5.75861C3.6698 5.28977 4.57797 5.03733 5.50559 5.02718C6.02287 5.02718 6.70094 5.18407 7.54095 5.49344C8.38096 5.8028 8.92072 5.95969 9.15574 5.95969C9.33342 5.95969 9.93053 5.77518 10.9471 5.40947C11.9063 5.07027 12.7159 4.92995 13.3794 4.98519C15.1786 5.12772 16.5291 5.82379 17.4276 7.07893C15.8196 8.03686 15.0246 9.37707 15.0403 11.0974C15.0538 12.4376 15.5497 13.5524 16.5213 14.4374C16.9508 14.8413 17.452 15.1644 18 15.3909C17.8808 15.7301 17.7549 16.0538 17.6222 16.3654ZM13.4986 0.420957C13.4986 1.47059 13.1073 2.45172 12.3302 3.35882C11.3901 4.43718 10.2544 5.06143 9.02305 4.9631C9.00695 4.83111 8.99906 4.69828 8.99944 4.56534C8.99944 3.55659 9.44474 2.47823 10.2398 1.59544C10.6356 1.14907 11.1394 0.776727 11.75 0.480621C12.3595 0.188934 12.9352 0.0276219 13.4772 0C13.4918 0.141424 13.4986 0.281743 13.4986 0.420957Z" fill="black"/>
</svg>
