 <svg width="28" height="24" viewBox="0 0 28 24" fill="none" xmlns="http://www.w3.org/2000/svg">
<path fill-rule="evenodd" clip-rule="evenodd" d="M0.882346 11.8529C0.87888 11.5117 0.976895 11.1835 1.15483 10.9404C1.33277 10.6973 1.57605 10.5593 1.83115 10.5567L24.518 10.3262L18.3817 2.29367C18.1986 2.05396 18.0938 1.72738 18.0903 1.38577C18.0869 1.04416 18.185 0.715517 18.3632 0.47213C18.5413 0.228744 18.7849 0.090552 19.0403 0.0879567C19.2958 0.0853613 19.5421 0.218575 19.7252 0.458291L27.5248 10.6713C27.6155 10.7899 27.6881 10.9311 27.7381 11.0869C27.7882 11.2427 27.8149 11.41 27.8166 11.5792C27.8183 11.7484 27.7951 11.9162 27.7482 12.073C27.7012 12.2298 27.6316 12.3725 27.5433 12.4929L19.9528 22.8623C19.7747 23.1056 19.5311 23.2438 19.2756 23.2464C19.0202 23.249 18.7739 23.1158 18.5908 22.8761C18.4077 22.6364 18.3029 22.3098 18.2995 21.9682C18.296 21.6266 18.3941 21.2979 18.5723 21.0546L24.5441 12.899L1.85729 13.1295C1.60219 13.1321 1.35615 12.9991 1.17332 12.7596C0.990478 12.5202 0.885813 12.1941 0.882346 11.8529Z" fill="white"/>
</svg>
