<svg width="35" height="37" viewBox="0 0 35 37" fill="none" xmlns="http://www.w3.org/2000/svg">
<g filter="url(#filter0_d_3_1644)">
<rect x="4.51953" y="2.51929" width="26" height="26" rx="4" fill="#FF9228"/>
<path d="M4 10L31 10" stroke="white" stroke-width="1.5"/>
<path d="M19 6L25.586 6" stroke="white" stroke-width="1.5" stroke-linecap="round"/>
<ellipse cx="9.12988" cy="5.9375" rx="0.9375" ry="0.9375" fill="white"/>
<ellipse cx="12.2549" cy="5.9375" rx="0.9375" ry="0.9375" fill="white"/>
<ellipse cx="15.3799" cy="5.9375" rx="0.9375" ry="0.9375" fill="white"/>
<path d="M21.8493 18.0328L17.7382 22.144C17.2848 22.5973 16.6885 22.8798 16.0505 22.9435L13.8011 23.1681C13.644 23.1838 13.5118 23.0517 13.5275 22.8945L13.7521 20.6451C13.8158 20.0071 14.0983 19.4108 14.5517 18.9574L18.6628 14.8463C19.5427 13.9664 20.9694 13.9664 21.8493 14.8463C22.7293 15.7263 22.7293 17.1529 21.8493 18.0328Z" stroke="white" stroke-width="1.5"/>
</g>
<defs>
<filter id="filter0_d_3_1644" x="0" y="2.51929" width="35" height="34" filterUnits="userSpaceOnUse" color-interpolation-filters="sRGB">
<feFlood flood-opacity="0" result="BackgroundImageFix"/>
<feColorMatrix in="SourceAlpha" type="matrix" values="0 0 0 0 0 0 0 0 0 0 0 0 0 0 0 0 0 0 127 0" result="hardAlpha"/>
<feOffset dy="4"/>
<feGaussianBlur stdDeviation="2"/>
<feComposite in2="hardAlpha" operator="out"/>
<feColorMatrix type="matrix" values="0 0 0 0 0 0 0 0 0 0 0 0 0 0 0 0 0 0 0.25 0"/>
<feBlend mode="normal" in2="BackgroundImageFix" result="effect1_dropShadow_3_1644"/>
<feBlend mode="normal" in="SourceGraphic" in2="effect1_dropShadow_3_1644" result="shape"/>
</filter>
</defs>
</svg>
