<svg width="124" height="142" viewBox="0 0 124 142" fill="none" xmlns="http://www.w3.org/2000/svg">
<g filter="url(#filter0_d_6_1881)">
<path d="M62.75 61C62.75 59.7574 63.7574 58.75 65 58.75H79C80.2426 58.75 81.25 59.7574 81.25 61V73C81.25 74.2426 80.2426 75.25 79 75.25H65C63.7574 75.25 62.75 74.2426 62.75 73V61Z" stroke="#150B3D" stroke-width="1.5" shape-rendering="crispEdges"/>
</g>
<path d="M63 63H81" stroke="#150B3D" stroke-width="1.5" stroke-linecap="round"/>
<path d="M66.5 66H67.5" stroke="#150B3D" stroke-width="1.5" stroke-linecap="round"/>
<path d="M66.5 69H67.5" stroke="#150B3D" stroke-width="1.5" stroke-linecap="round"/>
<path d="M66.5 72H67.5" stroke="#150B3D" stroke-width="1.5" stroke-linecap="round"/>
<path d="M71.5 66H72.5" stroke="#150B3D" stroke-width="1.5" stroke-linecap="round"/>
<path d="M71.5 69H72.5" stroke="#150B3D" stroke-width="1.5" stroke-linecap="round"/>
<path d="M71.5 72H72.5" stroke="#150B3D" stroke-width="1.5" stroke-linecap="round"/>
<path d="M76.5 66H77.5" stroke="#150B3D" stroke-width="1.5" stroke-linecap="round"/>
<path d="M76.5 69H77.5" stroke="#150B3D" stroke-width="1.5" stroke-linecap="round"/>
<path d="M76.5 72H77.5" stroke="#150B3D" stroke-width="1.5" stroke-linecap="round"/>
<path d="M67 60.1993V57" stroke="#150B3D" stroke-width="1.5" stroke-linecap="round"/>
<path d="M77 60.1993V57" stroke="#150B3D" stroke-width="1.5" stroke-linecap="round"/>
<defs>
<filter id="filter0_d_6_1881" x="0" y="0" width="144" height="142" filterUnits="userSpaceOnUse" color-interpolation-filters="sRGB">
<feFlood flood-opacity="0" result="BackgroundImageFix"/>
<feColorMatrix in="SourceAlpha" type="matrix" values="0 0 0 0 0 0 0 0 0 0 0 0 0 0 0 0 0 0 127 0" result="hardAlpha"/>
<feOffset dy="4"/>
<feGaussianBlur stdDeviation="31"/>
<feComposite in2="hardAlpha" operator="out"/>
<feColorMatrix type="matrix" values="0 0 0 0 0.600625 0 0 0 0 0.670375 0 0 0 0 0.775 0 0 0 0.18 0"/>
<feBlend mode="normal" in2="BackgroundImageFix" result="effect1_dropShadow_6_1881"/>
<feBlend mode="normal" in="SourceGraphic" in2="effect1_dropShadow_6_1881" result="shape"/>
</filter>
</defs>
</svg>
