<svg width="24" height="24" viewBox="0 0 24 24" fill="none" xmlns="http://www.w3.org/2000/svg">
<rect x="2.75" y="2.75" width="9.5" height="9.5" rx="2.25" stroke="#FF9228" stroke-width="1.5"/>
<path d="M4 15V15C4 17.7614 6.23858 20 9 20V20" stroke="#FF9228" stroke-width="1.5" stroke-linecap="round"/>
<path d="M15 4V4C17.7614 4 20 6.23858 20 9V9" stroke="#FF9228" stroke-width="1.5" stroke-linecap="round"/>
<rect x="11.75" y="11.75" width="9.5" height="9.5" rx="2.25" stroke="#FF9228" stroke-width="1.5"/>
<path d="M15.2997 17.418C15.406 17.6023 15.523 17.7792 15.65 17.9475C15.2473 18.1821 14.7898 18.2996 14.2778 18.3V19.5C15.116 19.5 15.8649 19.2597 16.5 18.7941C17.1351 19.2597 17.884 19.5 18.7222 19.5V18.3C18.2112 18.3 17.7538 18.1824 17.35 17.9472C17.477 17.779 17.594 17.6023 17.7003 17.418C18.0205 16.8557 18.256 16.2421 18.398 15.6H19V14.4H17.0556V13.5H15.9444V14.4H14V15.6H14.602C14.744 16.2421 14.9795 16.8557 15.2997 17.418ZM17.2476 15.6C17.1326 16.0153 16.968 16.4126 16.758 16.782C16.6795 16.9182 16.5933 17.049 16.5 17.1738C16.4134 17.0582 16.3331 16.9374 16.2594 16.8119C16.0408 16.4343 15.8702 16.0267 15.7523 15.6H17.2476Z" fill="#FF9228"/>
<path d="M8.96582 10.377L8.55176 9.01758H6.46973L6.05566 10.377H4.75098L6.7666 4.64258H8.24707L10.2705 10.377H8.96582ZM8.2627 8.00195L7.84863 6.67383C7.82259 6.58529 7.78743 6.47201 7.74316 6.33398C7.7015 6.19336 7.65853 6.05143 7.61426 5.9082C7.57259 5.76237 7.53874 5.63607 7.5127 5.5293C7.48665 5.63607 7.4502 5.76888 7.40332 5.92773C7.35905 6.08398 7.31608 6.23242 7.27441 6.37305C7.23275 6.51367 7.2028 6.61393 7.18457 6.67383L6.77441 8.00195H8.2627Z" fill="#FF9228"/>
</svg>
