<svg width="24" height="24" viewBox="0 0 24 24" fill="none" xmlns="http://www.w3.org/2000/svg">
<path d="M7.05043 8.35678C6.67829 5.37963 8.99968 2.75 12 2.75C15.0003 2.75 17.3217 5.37963 16.9496 8.35678L16.8539 9.12233C16.7744 9.75815 16.8504 10.4038 17.0754 11.0037L18.7844 15.5611C19.0909 16.3783 18.4868 17.25 17.614 17.25H6.386C5.51324 17.25 4.90914 16.3783 5.21559 15.5611L6.92459 11.0037C7.14959 10.4038 7.22561 9.75815 7.14613 9.12232L7.05043 8.35678Z" stroke="#3B4657" stroke-width="1.5"/>
<circle cx="12" cy="20.5" r="1.5" fill="#3B4657"/>
<path d="M5.22314 2.80957L20.4061 18.021" stroke="#3B4657" stroke-width="1.5" stroke-linecap="round"/>
<path d="M6.34393 1.83008L21.4981 16.9842" stroke="white" stroke-width="1.5" stroke-linecap="round"/>
</svg>
