<svg width="24" height="24" viewBox="0 0 24 24" fill="none" xmlns="http://www.w3.org/2000/svg">
<path d="M6 3.75H18C19.7949 3.75 21.25 5.20507 21.25 7V17C21.25 18.7949 19.7949 20.25 18 20.25H6C4.20507 20.25 2.75 18.7949 2.75 17V7C2.75 5.20507 4.20507 3.75 6 3.75Z" stroke="#FF9228" stroke-width="1.5"/>
<circle cx="7.5" cy="7.5" r="1.5" fill="#FF9228"/>
<path d="M18.916 8.97282L21.25 12.2403V17C21.25 18.7949 19.7949 20.25 18 20.25H6C4.20507 20.25 2.75 18.7949 2.75 17V16.2715L5.4731 13.0038C6.32011 11.9874 7.85703 11.9177 8.79259 12.8532L9.60714 13.6678C10.388 14.4487 11.6881 14.3199 12.3007 13.4011L15.213 9.03253C16.0865 7.72241 18.0008 7.69154 18.916 8.97282Z" fill="#FF9228" stroke="#FF9228" stroke-width="1.5"/>
</svg>
