<svg width="24" height="24" viewBox="0 0 24 24" fill="none" xmlns="http://www.w3.org/2000/svg">
<mask id="path-1-inside-1_4_146" fill="white">
<path fill-rule="evenodd" clip-rule="evenodd" d="M21.8587 10.1316C22.4178 9.7328 22.4178 8.90214 21.8587 8.50337L13.0807 2.24186C12.4188 1.76969 11.5 2.24288 11.5 3.05596V6.01228C6.20944 6.2728 2 10.6448 2 16V22L3.69742 17.9156C5.02724 14.7157 8.06926 12.579 11.5 12.3888V15.579C11.5 16.3921 12.4188 16.8653 13.0807 16.3931L21.8587 10.1316Z"/>
</mask>
<path d="M21.8587 8.50337L20.9876 9.72453L20.9876 9.72453L21.8587 8.50337ZM21.8587 10.1316L20.9876 8.91042L20.9876 8.91042L21.8587 10.1316ZM13.0807 2.24186L13.9518 1.0207V1.0207L13.0807 2.24186ZM11.5 6.01228L11.5738 7.51047L13 7.44024V6.01228H11.5ZM2 22H0.5L3.38515 22.5756L2 22ZM3.69742 17.9156L2.31227 17.3399H2.31227L3.69742 17.9156ZM11.5 12.3888H13V10.8034L11.417 10.8911L11.5 12.3888ZM13.0807 16.3931L12.2096 15.1719L13.0807 16.3931ZM20.9876 9.72453C20.7081 9.52513 20.7081 9.1098 20.9876 8.91042L22.7298 11.3527C24.1274 10.3558 24.1274 8.27915 22.7298 7.28221L20.9876 9.72453ZM12.2096 3.46301L20.9876 9.72453L22.7298 7.28221L13.9518 1.0207L12.2096 3.46301ZM13 3.05596C13 3.4625 12.5406 3.6991 12.2096 3.46301L13.9518 1.0207C12.297 -0.159725 10 1.02326 10 3.05596H13ZM13 6.01228V3.05596H10V6.01228H13ZM3.5 16C3.5 11.4485 7.07803 7.73184 11.5738 7.51047L11.4262 4.5141C5.34086 4.81375 0.5 9.8411 0.5 16H3.5ZM3.5 22V16H0.5V22H3.5ZM2.31227 17.3399L0.614853 21.4244L3.38515 22.5756L5.08256 18.4912L2.31227 17.3399ZM11.417 10.8911C7.41347 11.1131 3.86401 13.6061 2.31227 17.3399L5.08256 18.4912C6.19048 15.8253 8.72505 14.045 11.583 13.8865L11.417 10.8911ZM13 15.579V12.3888H10V15.579H13ZM12.2096 15.1719C12.5406 14.9358 13 15.1724 13 15.579H10C10 17.6117 12.297 18.7947 13.9518 17.6142L12.2096 15.1719ZM20.9876 8.91042L12.2096 15.1719L13.9518 17.6142L22.7298 11.3527L20.9876 8.91042Z" fill="#6F6B80" mask="url(#path-1-inside-1_4_146)"/>
</svg>
